<svg width="48" height="48" viewBox="0 0 48 48" fill="none" xmlns="http://www.w3.org/2000/svg">
<rect x="0.5" y="0.5" width="47" height="47" rx="23.5" fill="white"/>
<rect x="0.5" y="0.5" width="47" height="47" rx="23.5" stroke="url(#paint0_linear_221_449)"/>
<path fill-rule="evenodd" clip-rule="evenodd" d="M23.2157 8.20548C23.7027 7.93151 24.2975 7.93151 24.7845 8.20548L37.5845 15.4055C38.0883 15.6889 38.4001 16.222 38.4001 16.8V31.2C38.4001 31.778 38.0883 32.3111 37.5845 32.5945L24.7845 39.7945C24.2975 40.0685 23.7027 40.0685 23.2157 39.7945L10.4157 32.5945C9.91188 32.3111 9.6001 31.778 9.6001 31.2V16.8C9.6001 16.222 9.91188 15.6889 10.4157 15.4055L23.2157 8.20548ZM12.8001 19.5358V30.2642L22.4001 35.6642V24.9358L12.8001 19.5358ZM25.6001 24.9358V35.6642L35.2001 30.2642V19.5358L25.6001 24.9358ZM33.5365 16.8L24.0001 22.1642L14.4637 16.8L24.0001 11.4358L33.5365 16.8Z" fill="#6F4750"/>
<defs>
<linearGradient id="paint0_linear_221_449" x1="24" y1="0" x2="24" y2="48" gradientUnits="userSpaceOnUse">
<stop stop-color="#DEA175"/>
<stop offset="1" stop-color="white"/>
</linearGradient>
</defs>
</svg>
