<svg width="161" height="77" viewBox="0 0 161 77" fill="none" xmlns="http://www.w3.org/2000/svg">
<path d="M52.5558 1.26472C46.4769 3.59768 36.4583 12.994 34.235 30.728C33.5209 30.638 32.7858 30.5871 32.0402 30.5871C31.7086 30.5871 31.3756 30.5975 31.044 30.617C29.0217 9.1107 37.264 0.243683 37.264 0.243683C37.264 0.243683 45.2422 -0.745873 52.5558 1.26322V1.26472Z" fill="#2B3580"/>
<path d="M25.2068 31.9651C24.0096 32.4584 22.8814 33.0821 21.8448 33.8258C12.2028 18.8985 14.5762 10.2354 14.5762 10.2354C14.5762 10.2354 20.229 4.99224 27.2411 2.67578C23.618 7.15127 20.4151 18.2853 25.2053 31.9651H25.2068Z" fill="#2EA3A1"/>
<path d="M14.9601 52.7756C1.43258 53.4593 1.19254 51.834 1.19254 51.834C1.19254 51.834 -0.384202 46.4964 0.0883699 40.0508C1.62761 44.0645 4.00847 47.6644 14.4456 49.7664C14.5266 50.792 14.7066 51.798 14.9586 52.7741L14.9601 52.7756Z" fill="#2B3580"/>
<path d="M20.1945 61.3366C9.9284 68.4884 8.11312 66.8046 8.11312 66.8046C8.11312 66.8046 4.94764 62.551 3.23438 58.1235C6.15382 60.488 9.46633 63.3787 18.6957 59.7983C19.1683 60.341 19.6619 60.8538 20.196 61.3366H20.1945Z" fill="#2EA3A1"/>
<path d="M35.7803 75.4904C35.7803 75.4904 31.7657 77.501 27.9941 76.7363C30.4605 75.7903 34.6687 72.7121 35.6048 65.5304C36.0369 65.4404 36.4809 65.3399 36.9025 65.208C37.8086 74.2205 35.7803 75.4904 35.7803 75.4904Z" fill="#2B3580"/>
<path d="M46.3029 71.3645C46.3029 71.3645 45.1252 72.7843 42.1367 73.3661C43.4449 71.7573 44.8041 68.2458 42.1367 62.7133C42.3377 62.5829 42.5388 62.442 42.7308 62.2905C47.2795 68.1754 46.3044 71.363 46.3044 71.363L46.3029 71.3645Z" fill="#2EA3A1"/>
<path d="M75.3054 16.1305C67.5057 14.8936 55.8445 15.2969 42.6904 34.1569C41.8953 33.5527 41.0597 33.0204 40.1641 32.5677C50.9027 7.16006 61.5168 4.68018 61.5168 4.68018C61.5168 4.68018 69.5821 8.45248 75.3054 16.1305Z" fill="#C76400"/>
<path d="M17.587 38.0896C16.9224 39.0252 16.3493 40.0312 15.8857 41.0972C2.08814 33.9754 1.87061 29.7398 1.87061 29.7398C1.87061 29.7398 4.32498 22.1113 7.82802 17.6553C7.0434 22.624 8.10706 29.8118 17.5885 38.0911L17.587 38.0896Z" fill="#C76400"/>
<path d="M28.2763 65.4899C23.6256 75.6688 19.9381 75.9522 19.9381 75.9522C16.8131 75.5054 15.9474 75.1801 12.752 72.1514C16.0135 72.6642 21.1307 72.069 26.5961 65.0371C27.1392 65.2185 27.7032 65.3685 28.2763 65.4899Z" fill="#C76400"/>
<path d="M42.8316 56.7261C42.0065 56.5776 41.1574 56.4457 40.2347 56.3227L39.4846 56.2223L39.9917 55.66C40.8873 54.6675 41.5789 53.5625 42.044 52.378L42.203 51.9732L44.9754 53.3586L44.8359 53.7004C44.4159 54.7305 43.8878 55.669 43.2217 56.5716L43.0747 56.771L42.8301 56.7276L42.8316 56.7261ZM20.2397 56.4562C18.5519 54.1232 17.6968 51.396 17.6968 48.3508C17.6968 44.4781 19.0815 41.1316 21.8119 38.4028C24.5453 35.671 27.8953 34.2856 31.7704 34.2856C35.6455 34.2856 39 35.6665 41.741 38.3878C43.1137 39.7777 44.1548 41.331 44.8374 43.0072L44.9769 43.3491L42.2045 44.7344L42.0455 44.3296C41.5084 42.9637 40.6713 41.6983 39.5581 40.5693C37.4188 38.4433 34.7979 37.3638 31.7704 37.3638C28.743 37.3638 26.1326 38.4478 23.9947 40.5843C21.8569 42.7209 20.7722 45.3342 20.7722 48.3508C20.7722 51.1141 21.6799 53.5415 23.4712 55.5656L23.9692 56.1278L23.2236 56.2238C22.334 56.3392 21.4624 56.4712 20.6312 56.6151L20.3852 56.6571L20.2397 56.4562Z" fill="#2B3580"/>
<path d="M59.7303 57.1039C61.0025 55.828 61.6491 54.2642 61.6491 52.4575C61.6491 50.6508 61.0175 49.096 59.7183 47.7976C58.4341 46.5142 56.8648 45.8635 55.0555 45.8635C53.2463 45.8635 51.677 46.5142 50.3928 47.7976C49.0936 49.096 48.462 50.6208 48.462 52.4575C48.462 54.2942 49.0861 55.774 50.3163 57.038L51.0724 57.8131L49.9938 57.7127C49.3337 57.6512 48.6571 57.5747 47.9835 57.4848L47.8064 57.4608L47.7059 57.3123C46.7473 55.897 46.2627 54.2627 46.2627 52.456C46.2627 50.0361 47.1283 47.943 48.8341 46.2383C50.5399 44.5336 52.6342 43.6685 55.0555 43.6685C57.4769 43.6685 59.5667 44.5336 61.2725 46.2383C62.9813 47.9415 63.8484 50.0346 63.8484 52.456C63.8484 54.3347 63.3248 56.0199 62.2926 57.4653L62.1876 57.6137L62.0061 57.6302C61.3955 57.6887 60.7519 57.7381 60.0378 57.7816L58.9906 57.8446L59.7318 57.1024L59.7303 57.1039Z" fill="#2B3580"/>
<path d="M71.666 56.0258C71.6585 55.7574 71.603 55.4785 71.498 55.1727C71.2295 54.3975 70.7464 53.8518 70.0203 53.5009L67.0093 52.0136C65.9217 51.4888 65.1715 50.6357 64.783 49.4797C64.612 48.9939 64.5234 48.5022 64.5234 48.0224C64.5234 47.3732 64.6795 46.73 64.9855 46.1122C65.5211 45.0207 66.3792 44.2666 67.5359 43.8707C68.01 43.6983 68.4975 43.6099 68.9791 43.6099C69.6212 43.6099 70.2678 43.7688 70.9039 44.0852C71.8191 44.5335 72.5032 45.2126 72.9337 46.1032L73.0852 46.4181L71.1935 47.6625L71.0134 47.2068C70.8049 46.6805 70.4538 46.3072 69.9393 46.0628C69.6122 45.9038 69.2807 45.8229 68.9521 45.8229C68.7886 45.8229 68.481 45.8619 67.944 46.0523C67.5674 46.1842 67.2344 46.5306 66.9553 47.0838C66.7993 47.3957 66.7198 47.721 66.7198 48.0494C66.7198 48.2848 66.7978 48.6266 66.9493 49.0689C67.0798 49.4452 67.4264 49.7736 67.977 50.0435L70.9849 51.5248C72.2436 52.1485 73.1153 53.1321 73.5773 54.447C73.7348 54.9223 73.8234 55.3556 73.8519 55.7769L73.8759 56.1412L71.678 56.4771L71.666 56.0258Z" fill="#2B3580"/>
<path d="M78.0677 45.8634H73.8745V43.6699H84.4601V45.8634H80.267V55.3242L79.9174 55.3677C79.4599 55.4246 78.9933 55.4861 78.5222 55.5521L78.0677 55.6166V45.8634Z" fill="#2B3580"/>
<path d="M121.975 43.6953H124.169V57.774L123.416 57.819C123.083 57.8385 122.743 57.861 122.392 57.8759L121.975 57.8954V43.6953Z" fill="#2B3580"/>
<path d="M126.423 57.3107C125.481 55.9028 125.002 54.2775 125.002 52.4843C125.002 50.0674 125.868 47.9759 127.574 46.2666C129.281 44.5619 131.372 43.6968 133.792 43.6968C136.212 43.6968 138.305 44.5589 140.018 46.2621C140.876 47.1287 141.526 48.0988 141.955 49.1483L142.095 49.4902L140.114 50.4767L139.955 50.0719C139.633 49.2533 139.13 48.4931 138.462 47.8139C137.159 46.5245 135.632 45.8963 133.794 45.8963C131.956 45.8963 130.412 46.5455 129.131 47.8259C127.85 49.1063 127.2 50.6746 127.2 52.4858C127.2 54.0886 127.68 55.447 128.666 56.639L129.122 57.1907L128.412 57.2882C127.892 57.3601 127.362 57.4261 126.801 57.4876L126.56 57.5146L126.425 57.3137L126.423 57.3107ZM140.002 54.7708C140.06 54.6104 140.111 54.4469 140.156 54.279H133.392V52.0855H142.584V52.4843C142.584 53.321 142.482 54.1171 142.282 54.8473L142.209 55.1141L141.934 55.1396C141.412 55.1876 140.912 55.2401 140.426 55.3016L139.781 55.3825L140.002 54.7708Z" fill="#2B3580"/>
<path d="M160.208 55.363C159.755 55.3151 159.279 55.2671 158.781 55.2221L158.268 55.1771L158.442 54.6913C158.682 54.0211 158.804 53.2775 158.804 52.4828C158.804 50.6701 158.154 49.1033 156.873 47.8229C155.592 46.5425 154.023 45.8933 152.21 45.8933C150.398 45.8933 148.847 46.5245 147.548 47.8229C146.263 49.1063 145.612 50.6746 145.612 52.4828C145.612 53.1455 145.702 53.7932 145.879 54.405L146.022 54.8967L145.51 54.9147C145.018 54.9327 144.543 54.9597 144.087 54.9852L143.758 55.0047L143.677 54.6853C143.504 54.0017 143.417 53.261 143.417 52.4843C143.417 50.0689 144.283 47.9759 145.989 46.2666C147.696 44.5619 149.789 43.6968 152.212 43.6968C154.635 43.6968 156.723 44.5619 158.429 46.2666C160.135 47.9774 161 50.0689 161 52.4843C161 53.4019 160.877 54.276 160.634 55.0827L160.54 55.399L160.211 55.3645L160.208 55.363Z" fill="#2B3580"/>
<path d="M31.7703 62.4206C27.8952 62.4206 24.5452 61.0352 21.8118 58.3034C21.6303 58.122 21.4577 57.9406 21.2897 57.7532C20.8787 57.2989 20.5351 56.8731 20.2381 56.4518L19.875 55.9375L20.4946 55.8295C21.3362 55.6841 22.2199 55.5507 23.1215 55.4337L23.3315 55.4067L23.471 55.5642C23.6376 55.7531 23.8101 55.9375 23.9931 56.1204C24.2497 56.3768 24.4897 56.5972 24.7267 56.7951C26.7115 58.4864 29.0789 59.341 31.7688 59.341C34.4587 59.341 36.7526 58.5118 38.7179 56.8791C38.9939 56.6527 39.267 56.4023 39.558 56.1129C39.708 55.963 39.8506 55.8116 39.9931 55.6571L40.1341 55.5042L40.3411 55.5312C41.2758 55.6556 42.1369 55.7906 42.9725 55.9405L43.6011 56.0544L43.2231 56.5687C42.8915 57.0215 42.533 57.4548 42.1579 57.8566C42.0319 58.0006 41.8894 58.1475 41.7423 58.2959C39.0029 61.0337 35.6484 62.4221 31.7703 62.4221V62.4206Z" fill="#0084AE"/>
<path d="M55.0558 61.2404C52.7859 61.2404 50.8011 60.4802 49.1569 58.9794C49.0519 58.8835 48.9409 58.777 48.8343 58.6706C48.3978 58.2358 48.0182 57.777 47.7062 57.3107L47.5486 57.0693L47.4721 56.9448L47.3611 56.7544L47.2666 56.5835L48.0902 56.6929C48.7533 56.7799 49.4194 56.8564 50.069 56.9163L50.2311 56.9313L50.3361 57.0558C50.3556 57.0783 50.3736 57.0963 50.3931 57.1143C51.0052 57.723 51.6788 58.1908 52.3959 58.5071L52.4769 58.5386C53.257 58.8745 54.1242 59.0454 55.0573 59.0454C55.9904 59.0454 56.8111 58.8835 57.5897 58.5626C58.3548 58.2462 59.0719 57.759 59.72 57.1143L59.8265 57.0078L59.99 56.9853C60.6952 56.9418 61.3298 56.8939 61.9313 56.8369L62.7475 56.7589L62.596 57.0123L62.4444 57.2477L62.2959 57.4636C62.0034 57.8789 61.6598 58.2852 61.2742 58.6691C61.1302 58.813 60.9877 58.9464 60.8392 59.0769C59.2249 60.5117 57.2776 61.2389 55.0573 61.2389L55.0558 61.2404Z" fill="#0084AE"/>
<path d="M68.6989 61.2406C67.9563 61.2406 67.2061 61.0636 66.471 60.7158C65.5049 60.2405 64.7683 59.5433 64.2792 58.6407C64.1607 58.4353 64.0542 58.2104 63.9612 57.9645L63.8486 57.6692L65.7494 56.3917C65.7704 56.4547 65.9655 57.0844 65.9655 57.0844C66.0885 57.4353 66.264 57.7486 66.489 58.014C66.7411 58.3124 67.0501 58.5493 67.4357 58.7397C67.8482 58.9451 68.2788 59.0485 68.7139 59.0485C69.0334 59.0485 69.485 58.9481 70.0551 58.7487C70.5787 58.5703 71.0062 58.1295 71.3633 57.3978L71.3708 57.3738L71.3963 57.3213C71.5793 56.936 71.6723 56.5357 71.6723 56.1309C71.6723 56.1069 71.6723 56.0844 71.6708 56.0604L71.6273 55.6796L72.0069 55.6226C72.475 55.5521 72.9385 55.4817 73.3946 55.4112L73.8192 55.3452L73.8537 55.774C73.8627 55.8955 73.8687 56.0124 73.8687 56.1324C73.8687 56.5417 73.8147 56.954 73.7096 57.3558C73.6256 57.6872 73.4996 58.0275 73.3376 58.3619C72.718 59.6288 71.7293 60.5014 70.3971 60.9557C69.8346 61.1461 69.2645 61.2421 68.7019 61.2421L68.6989 61.2406Z" fill="#0084AE"/>
<path d="M120.002 57.9598L119.113 57.9778C118.777 57.9853 118.433 57.9928 118.082 57.9958L117.743 57.9988L116.474 50.5471L113.394 57.8863L113.106 57.8624C112.137 57.7814 111.151 57.6719 110.093 57.5235L109.868 57.492L106.95 50.5471L105.884 56.8293L104.196 56.5175L103.895 55.7783L104.714 50.8185L104.882 49.79L105.404 46.6324L106.101 42.6802L107.606 46.3055L111.714 56.1471L115.823 46.3055L117.32 42.6802L118.025 46.6279L120.002 57.9598Z" fill="#2B3580"/>
<path d="M106.003 56.1217L105.951 56.432L105.711 57.8159L105.429 59.5296L104.751 57.8624L103.894 55.7783L106.003 56.1217Z" fill="#0084AE"/>
<path d="M113.717 57.1125L112.852 59.1771L111.713 61.9088L110.417 58.7992L109.509 56.6372L110.202 56.7347C111.247 56.8801 112.217 56.988 113.171 57.0675L113.717 57.1125Z" fill="#0084AE"/>
<path d="M120.578 61.2722H118.299L117.606 57.203L118.074 57.2C118.422 57.1955 118.763 57.1895 119.094 57.182L119.862 57.1655L120.578 61.2722Z" fill="#0084AE"/>
<path d="M124.169 56.9766V61.2721H121.975V57.098L122.354 57.08C122.704 57.0635 123.044 57.044 123.377 57.023L124.169 56.9766Z" fill="#0084AE"/>
<path d="M142.43 54.2925L142.283 54.8442C142.135 55.3975 141.934 55.9223 141.686 56.405C141.287 57.2162 140.723 57.9913 140.012 58.702C138.306 60.4067 136.213 61.2718 133.79 61.2718C131.367 61.2718 129.279 60.4067 127.573 58.702C127.567 58.696 127.54 58.669 127.54 58.669C127.113 58.2372 126.738 57.7799 126.423 57.3106L126.057 56.7664L126.709 56.6929C127.264 56.6314 127.786 56.5655 128.301 56.495L128.328 56.492H128.546L128.67 56.6404C128.799 56.8009 128.949 56.9658 129.128 57.1427C129.339 57.3541 129.57 57.558 129.816 57.7469L129.909 57.8144C131.016 58.6495 132.323 59.0738 133.79 59.0738C135.628 59.0738 137.157 58.4396 138.462 57.1352C138.762 56.8338 139.023 56.528 139.26 56.1981C139.569 55.7498 139.812 55.2805 140.001 54.7678L140.085 54.5399L140.327 54.5099C140.822 54.4484 141.33 54.3944 141.86 54.345L142.43 54.2925Z" fill="#0084AE"/>
<path d="M152.21 61.2707C149.787 61.2707 147.695 60.4056 145.989 58.7008C145.213 57.9257 144.609 57.0681 144.192 56.1535C143.971 55.6737 143.802 55.1924 143.677 54.6826L143.563 54.2178L144.042 54.1909C144.504 54.1639 144.985 54.1369 145.483 54.1189L145.791 54.1084L145.879 54.4038C146.017 54.8686 146.202 55.2989 146.445 55.7202C146.733 56.2254 147.104 56.7037 147.548 57.143C148.848 58.443 150.373 59.0742 152.212 59.0742C154.051 59.0742 155.593 58.425 156.875 57.1445C157.241 56.7787 157.557 56.3874 157.815 55.9796C158.079 55.5747 158.289 55.1459 158.442 54.6976L158.543 54.4023L158.855 54.4293C159.357 54.4742 159.837 54.5222 160.295 54.5717L160.771 54.6227L160.634 55.0815C160.484 55.5852 160.285 56.0725 160.042 56.5268C159.645 57.296 159.102 58.0291 158.429 58.7023C156.723 60.4071 154.63 61.2722 152.212 61.2722L152.21 61.2707Z" fill="#0084AE"/>
<path d="M78.0674 61.2405V54.8113L78.4109 54.7634C78.8865 54.6959 79.3576 54.6344 79.8196 54.5774L80.2682 54.522V61.242H78.0689L78.0674 61.2405Z" fill="#0084AE"/>
<path d="M106.686 46.6295C106.393 46.9608 105.34 47.9309 105.34 47.9309L105.046 48.1603C104.444 48.6296 103.823 49.1138 103.199 49.5247C102.932 49.7061 102.683 49.8605 102.428 50.0014C101.912 50.2788 101.424 50.5412 100.901 50.7736C100.751 50.8351 100.601 50.895 100.451 50.955L95.254 38.1103L93.9038 34.8013L92.5776 38.1103L88.2134 48.8724C87.7813 48.8065 87.3583 48.7735 86.9532 48.7735C86.7777 48.7735 86.6007 48.7795 86.4356 48.7915C85.2235 48.85 83.9978 49.1693 82.7841 49.7421C82.178 50.0404 81.6154 50.3808 81.1083 50.7556C80.6148 51.1199 80.1677 51.5278 79.7746 51.9671L79.7686 51.9701L79.7521 51.991C79.7251 52.021 79.6981 52.0495 79.6711 52.0795L79.6771 52.087L78.4199 53.7213C78.4199 53.7213 79.236 53.1875 80.1617 52.6792L80.1677 52.6867C80.6223 52.4333 81.0693 52.2174 81.4984 52.0435C82.8891 51.4618 84.3188 51.1679 85.75 51.1679C85.9736 51.1679 86.1971 51.1754 86.4251 51.1904C86.6967 51.2039 86.9652 51.2339 87.2353 51.2804L85.7275 54.9942L86.3441 54.9702C86.9682 54.9462 87.6298 54.9357 88.3679 54.9357H88.6335L89.8157 52.1035L90.1757 52.2669C90.3137 52.3269 90.4518 52.4109 90.5973 52.4993C90.6873 52.5548 90.7788 52.6103 90.8613 52.6553L91.2049 52.8607L91.6174 53.1021L92.0585 53.3629L92.4951 53.5803C93.5737 54.1081 94.7619 54.3765 96.0281 54.3765C96.1241 54.3765 96.2201 54.375 96.3192 54.372C96.9268 54.345 97.5613 54.255 98.2154 54.0976C98.4285 54.0391 98.6385 53.9762 98.8425 53.9087L99.7037 56.0392L99.9212 56.0767C100.386 56.1577 100.844 56.2416 101.3 56.3241L102.722 56.5805L101.211 52.8412C101.869 52.4558 102.53 51.9925 103.222 51.4333L103.252 51.4078C103.34 51.3313 103.429 51.2564 103.514 51.1784C104.173 50.5922 104.834 49.8635 105.489 49.0209V49.0269C106.428 47.9624 106.681 46.6265 106.681 46.6265L106.686 46.6295ZM91.5649 50.0029C91.4059 49.913 91.2439 49.8185 91.0594 49.7421L90.7113 49.5996L93.9068 41.7132L97.9454 51.6777L97.9094 51.6837C97.4383 51.7587 96.9673 51.7961 96.5082 51.7961C96.4422 51.7961 96.3747 51.7961 96.3162 51.7946C95.2555 51.7497 94.2803 51.5068 93.4207 51.0735L93.0832 50.9025L92.3511 50.4617L91.9175 50.2113C91.8545 50.1799 91.796 50.1454 91.7075 50.0869L91.5634 50.0044L91.5649 50.0029Z" fill="#C76400"/>
<path d="M88.971 54.1411L88.1369 56.1247L86.0006 61.2404H83.2012L86.0591 54.1861L86.3171 54.1756C86.9517 54.1516 87.6238 54.1411 88.371 54.1411H88.971Z" fill="#0084AE"/>
<path d="M104.609 61.2407H101.813L99.354 55.1714L100.062 55.2958C100.529 55.3768 100.988 55.4608 101.445 55.5432L102.372 55.7111L103.084 57.4609L104.609 61.2407Z" fill="#0084AE"/>
</svg>
